<svg width="24" height="24" viewBox="0 0 24 24" fill="none" xmlns="http://www.w3.org/2000/svg">
<path d="M24 2.31584V8.52637H21.4737V4.94742C17.963 5.15085 15.9644 5.92007 12 8.52637C7.58131 5.58184 4.982 4.66277 0 4.94742V2.31584C5.17756 2.34443 7.81082 3.13534 12 5.78953C16.1597 3.16988 19.0598 2.30852 24 2.31584Z" fill="#0189FF"/>
<path d="M0 5.89478H2.73684V8.63162H0V5.89478Z" fill="#0189FF"/>
<path d="M0 9.89478C4.97663 9.94553 7.69261 10.7278 12 13.4737C15.9572 10.7333 18.6247 9.99134 24 9.89478V18.1053C18.7654 18.1511 16.1528 18.9333 12 21.4737C7.83726 19.091 5.2992 18.1738 0 18.1053V9.89478Z" fill="#0189FF"/>
</svg>
